<svg xmlns="http://www.w3.org/2000/svg" xmlns:xlink="http://www.w3.org/1999/xlink" version="1.1"  x="0px" y="0px" width="32" height="32" viewBox="0 0 32 32" style="enable-background:new 0 0 32 32;" xml:space="preserve" viewbox="0 0 32 32">

<path id="2664992549_shock_x5F_color_grid" class="stshockcolor" d="M9.5,26.5c-3.036,0-5-8.172-5-11c0-3.465,1.957-5.013,3.123-5.627l0.725-0.382l-0.67-0.47  C6.528,8.215,6.5,7.506,6.5,7.499c0-1.976,1.918-1.999,2-1.999h15c0.082,0,2,0.023,2,2c0,0.006-0.027,0.715-1.177,1.521l-0.67,0.47  l0.724,0.381c1.167,0.614,3.123,2.163,3.123,5.627c0,2.828-1.964,11-5,11H9.5z" style="fill:#FFD878;;" data-st="fill:#FFD878;;"></path>
<path class="st2" d="M27.5,15.16v0.27c0,1.38-0.36,3.4-0.93,5.33l-0.19,0.65L23.5,19.5l-3,1.99l-3-1.99v-3l3-2l3,2l3-2L27.5,15.16z" style="opacity:0.2;fill:#5D5D5D;;"></path>
<path class="st4" d="M20.5,21.5v3l-3,2l-3-2v-3l3-1.99L20.5,21.5z M17.5,16.5l-3-2l-3,2v3l3,2l3-2V16.5z" style="opacity:0.4;fill:#5D5D5D;;"></path>
<path class="st1" d="M8.509,9.5L8.402,9.445C6.738,8.592,6.53,7.738,6.506,7.575C6.5,5.921,7.757,5.5,8.5,5.5h15  c0.743,0,2,0.417,2,1.98c-0.024,0.227-0.211,1.097-1.891,1.964L23.501,9.5H8.509z" style="opacity:0.4;fill:#4D5152;;"></path>
<path class="st0" d="M24.61,9.43C25.95,8.49,26,7.61,26,7.5C26,5.52,24.36,5,23.5,5h-15C7.64,5,6,5.52,6,7.5  c0,0.11,0.05,0.99,1.39,1.93C6.1,10.11,4,11.79,4,15.5C4,18.36,5.95,27,9.5,27h13c3.55,0,5.5-8.64,5.5-11.5  C28,11.79,25.9,10.11,24.61,9.43z M7,7.5C7,6.09,8.25,6,8.5,6h15C23.75,6,25,6.09,25,7.48c0,0-0.09,0.73-1.62,1.52H8.63  C7.11,8.22,7,7.5,7,7.5z M9.5,26C7,26,5,18.46,5,15.5c0-4.25,3.06-5.35,3.56-5.5h14.9c0.46,0.15,2.87,1.06,3.42,4.15l-0.1-0.07  c-0.17-0.11-0.391-0.11-0.561,0l-2.72,1.81l-2.72-1.81c-0.17-0.11-0.391-0.11-0.561,0l-2.72,1.81l-2.72-1.81  c-0.17-0.11-0.39-0.11-0.56,0l-3,2C11.08,16.18,11,16.33,11,16.5v3c0,0.17,0.08,0.32,0.22,0.42L14,21.77v2.73  c0,0.17,0.08,0.32,0.22,0.42L15.84,26H9.5z M23,16.77v2.46l-2.5,1.659L18,19.23v-2.46l2.5-1.67L23,16.77z M17,16.77v2.46l-2.5,1.67  L12,19.23v-2.46l2.5-1.67L17,16.77z M15,24.23V21.77l2.5-1.659L20,21.77v2.461l-2.5,1.67L15,24.23z M19.16,26l1.34-0.89L21.84,26  H19.16z M23.28,25.75L21,24.23V21.77l2.5-1.659l0.9,0.59l0.25,0.17l1.119,0.75C25.12,23.5,24.26,25.15,23.28,25.75z M26.09,20.62  L24,19.23v-2.46l2.5-1.67l0.5,0.33v0.07C27,16.72,26.66,18.7,26.09,20.62z" style="fill:#4D5152;;"></path>
</svg>