<?xml version="1.0" standalone="no"?>
<!DOCTYPE svg PUBLIC "-//W3C//DTD SVG 20010904//EN" "http://www.w3.org/TR/2001/REC-SVG-20010904/DTD/svg10.dtd">
<!-- Created using Krita: https://krita.org -->
<svg xmlns="http://www.w3.org/2000/svg" 
    xmlns:xlink="http://www.w3.org/1999/xlink"
    xmlns:krita="http://krita.org/namespaces/svg/krita"
    xmlns:sodipodi="http://sodipodi.sourceforge.net/DTD/sodipodi-0.dtd"
    width="115.44pt"
    height="117.84pt"
    viewBox="0 0 115.44 117.84">
<defs/>
<path id="shape0" transform="matrix(0.999999961557882 0 0 0.999999961557882 14.8213515389346 8.72535264418825)" fill="none" stroke="#ffb100" stroke-width="2.4" stroke-linecap="square" stroke-linejoin="bevel" d="M89.28 72L46.32 100.32L0 73.44L0 25.68L44.88 0L88.32 23.04Z"/><path id="shape0" transform="translate(12.4800024700517, 9.12000278887598)" fill="none" stroke="#ffffff" stroke-width="2.4" stroke-linecap="square" stroke-linejoin="bevel" d="M89.28 72L46.32 100.32L0 73.44L0 25.68L44.88 0L88.32 23.04Z"/><path id="shape1" transform="translate(38.6400033432462, 21.8400032134568)" fill="#ffb100" fill-rule="evenodd" stroke="#ffb100" stroke-width="4.8" stroke-linecap="square" stroke-linejoin="bevel" d="M0 10.56L18 0L36 10.08Z"/><path id="shape2" transform="translate(24.7200028786106, 44.8800039825088)" fill="#ffb100" fill-rule="evenodd" stroke="#ffb100" stroke-width="4.8" stroke-linecap="square" stroke-linejoin="bevel" d="M0 0.24L63.12 0L62.88 7.2L0 7.2Z"/><path id="shape3" transform="translate(23.7600028465667, 67.2000047275282)" fill="#ffb100" fill-rule="evenodd" stroke="#ffb100" stroke-width="4.8" stroke-linecap="square" stroke-linejoin="bevel" d="M0 0.24L65.76 0L65.76 6.96L0.24 6.72Z"/><path id="shape4" transform="translate(39.3600033672791, 86.4000053684047)" fill="#ffb100" fill-rule="evenodd" stroke="#ffb100" stroke-width="4.8" stroke-linecap="square" stroke-linejoin="bevel" d="M0 0L35.76 0L17.52 10.56Z"/><path id="shape01" transform="matrix(0.894206836157956 -0.44765406618318 0.44765406618318 0.894206836157956 10.3478361373946 41.7386706029854)" fill="none" stroke="#ffb100" stroke-width="2.4" stroke-linecap="square" stroke-linejoin="bevel" d="M0 19.5241C0 18.9354 1.52369 19.4459 1.68 19.5241C6.89273 22.1305 14.7015 24.0226 21.36 17.3641C24.8938 13.8303 25.2 7.18865 25.2 2.00409C25.2 -8.92433 5.76 28.4041 5.76 28.4041C5.76 28.4041 11.1963 23.1241 14.64 23.1241C25.9767 23.1241 10.9093 42.1494 26.4 34.4041C43.7216 25.7433 17.9568 35.3425 28.56 40.6441C33.0725 42.9003 42.4449 32.929 41.04 31.5241C39.5576 30.0417 38.0371 59.1299 45.36 44.4841C49.7739 35.6563 47.903 37.6994 53.76 41.6041C55.2489 42.5967 61.68 45.9349 61.68 42.3241C61.68 41.1772 60.1635 34.4806 57.12 37.5241C43.6133 51.0308 70.08 61.2545 70.08 57.9241"/><path id="shape5" transform="matrix(0.894206823280505 -0.447654059736525 0.447654059736525 0.894206823280505 8.47362790630369 42.6890177481894)" fill="none" stroke="#ffffff" stroke-width="2.4" stroke-linecap="square" stroke-linejoin="bevel" d="M0 19.5241C0 18.9354 1.52369 19.4459 1.68 19.5241C6.89273 22.1305 14.7015 24.0226 21.36 17.3641C24.8938 13.8303 25.2 7.18865 25.2 2.00409C25.2 -8.92433 5.76 28.4041 5.76 28.4041C5.76 28.4041 11.1963 23.1241 14.64 23.1241C25.9767 23.1241 10.9093 42.1494 26.4 34.4041C43.7216 25.7433 17.9568 35.3425 28.56 40.6441C33.0725 42.9003 42.4449 32.929 41.04 31.5241C39.5576 30.0417 38.0371 59.1299 45.36 44.4841C49.7739 35.6563 47.903 37.6994 53.76 41.6041C55.2489 42.5967 61.68 45.9349 61.68 42.3241C61.68 41.1772 60.1635 34.4806 57.12 37.5241C43.6133 51.0308 70.08 61.2545 70.08 57.9241"/><path id="shape02" transform="matrix(0.999999967203034 0 0 0.999999967203034 50.9176929490647 33.5964357972326)" fill="none" stroke="#ffb100" stroke-width="0.96" stroke-linecap="square" stroke-linejoin="bevel" d="M3.76644 7.49948C1.31369 7.49948 -1.45629 3.1222 0.88644 0.779475C4.40191 -2.736 5.2425 6.77947 4.48644 6.77947"/><path id="shape1" transform="matrix(0.999999967203034 0 0 0.999999967203034 55.4041324326967 35.8543030930122)" fill="none" stroke="#ffb100" stroke-width="0.96" stroke-linecap="square" stroke-linejoin="bevel" d="M0 4.5216C5.82301 -7.12441 6.54209 7.79265 0 4.5216"/><path id="shape2" transform="matrix(0.999999967203034 0 0 0.999999967203034 54.900815939237 40.3759103809258)" fill="none" stroke="#ffb100" stroke-width="0.96" stroke-linecap="square" stroke-linejoin="bevel" d="M0.503316 0C-1.6789 6.54664 4.16673 7.32684 0.503316 0"/><path id="shape6" transform="translate(49.7535661913335, 33.7805288454355)" fill="none" stroke="#ffffff" stroke-width="0.96" stroke-linecap="square" stroke-linejoin="bevel" d="M3.76644 7.49948C1.31369 7.49948 -1.45629 3.1222 0.886438 0.779475C4.40191 -2.736 5.2425 6.77947 4.48644 6.77947"/><path id="shape7" transform="translate(54.2400038639586, 36.038399568253)" fill="none" stroke="#ffffff" stroke-width="0.96" stroke-linecap="square" stroke-linejoin="bevel" d="M0 4.5216C5.82301 -7.12441 6.54209 7.79265 0 4.5216"/><path id="shape8" transform="translate(53.736688466213, 40.5600038383116)" fill="none" stroke="#ffffff" stroke-width="0.96" stroke-linecap="square" stroke-linejoin="bevel" d="M0.503315 0C-1.6789 6.54664 4.16673 7.32684 0.503315 0"/>
</svg>
